<svg width="19" height="18" viewBox="0 0 19 18" fill="none" xmlns="http://www.w3.org/2000/svg">
<path d="M3.95357 17.353C3.62126 17.1047 3.54832 16.6962 3.75095 16.1114L5.44492 11.1292L1.11677 8.05341C0.614251 7.70097 0.403517 7.33251 0.541305 6.93201C0.670987 6.54753 1.05193 6.3633 1.67603 6.3633H6.9849L8.59783 1.38911C8.79235 0.796369 9.08414 0.5 9.4975 0.5C9.91897 0.5 10.2108 0.796369 10.4053 1.38911L12.0182 6.3633H17.3271C17.9512 6.3633 18.3321 6.54753 18.4618 6.93201C18.5915 7.33251 18.3889 7.70097 17.8863 8.05341L13.5582 11.1292L15.2522 16.1114C15.4548 16.6962 15.3818 17.1047 15.0495 17.353C14.7091 17.6093 14.2958 17.5212 13.7932 17.1607L9.4975 14.0449L5.20987 17.1607C4.70735 17.5212 4.28589 17.6093 3.95357 17.353Z" fill="#80807E"/>
</svg>
