<svg width="21" height="16" viewBox="0 0 21 16" fill="none" xmlns="http://www.w3.org/2000/svg">
<path d="M3.00098 15.1689C1.16406 15.1689 0.241211 14.2637 0.241211 12.4531V2.88184C0.241211 1.07129 1.16406 0.157227 3.00098 0.157227H18.1357C19.9814 0.157227 20.8955 1.07129 20.8955 2.88184V12.4531C20.8955 14.2637 19.9814 15.1689 18.1357 15.1689H3.00098ZM1.65625 2.96094V3.65527H19.4805V2.96094C19.4805 2.04688 18.9795 1.57227 18.1182 1.57227H3.01855C2.13965 1.57227 1.65625 2.04688 1.65625 2.96094ZM3.01855 13.7539H18.1182C18.9795 13.7539 19.4805 13.2881 19.4805 12.374V5.65039H1.65625V12.374C1.65625 13.2881 2.13965 13.7539 3.01855 13.7539ZM4.1875 12.0928C3.66895 12.0928 3.32617 11.7412 3.32617 11.249V9.62305C3.32617 9.12207 3.66895 8.7793 4.1875 8.7793H6.34082C6.85938 8.7793 7.20215 9.12207 7.20215 9.62305V11.249C7.20215 11.7412 6.85938 12.0928 6.34082 12.0928H4.1875Z" fill="white"/>
</svg>
