<svg width="18" height="22" viewBox="0 0 18 22" fill="none" xmlns="http://www.w3.org/2000/svg">
<path d="M0.815186 4.61411L3.38228 9.2026V12.0015L0.818189 16.5809L0.815186 4.61411Z" fill="#5B57A2"/>
<path d="M10.6718 7.5329L13.0772 6.05858L18.0001 6.05399L10.6718 10.5434V7.5329Z" fill="#D90751"/>
<path d="M10.6581 4.58708L10.6717 10.6621L8.09863 9.08107V0L10.6581 4.58708Z" fill="#FAB718"/>
<path d="M18.0001 6.05399L13.077 6.05858L10.6581 4.58708L8.09863 0L18.0001 6.05399Z" fill="#ED6F26"/>
<path d="M10.6717 16.6064V13.659L8.09863 12.108L8.10005 21.1981L10.6717 16.6064Z" fill="#63B22F"/>
<path d="M13.0712 15.1455L3.38211 9.2026L0.815186 4.61411L17.9898 15.1395L13.0712 15.1455Z" fill="#1487C9"/>
<path d="M8.10022 21.198L10.6716 16.6064L13.071 15.1455L17.9895 15.1395L8.10022 21.198Z" fill="#017F36"/>
<path d="M0.818237 16.5809L8.11976 12.1081L5.66502 10.602L3.38233 12.0014L0.818237 16.5809Z" fill="#984995"/>
</svg>
