<svg width="16" height="16" viewBox="0 0 16 16" fill="none" xmlns="http://www.w3.org/2000/svg">
<path d="M4.85328 0C3.01755 0 2.09969 0 1.51766 0.565229C0.935631 1.13046 0.908752 2.04793 0.854994 3.88286L0.620619 11.8829C0.563904 13.8188 0.535546 14.7867 1.12468 15.3934C1.71382 16 2.68218 16 4.6189 16H11.3811C13.3178 16 14.2862 16 14.8753 15.3934C15.4645 14.7867 15.4361 13.8188 15.3794 11.8829L15.145 3.88286C15.0912 2.04793 15.0644 1.13046 14.4823 0.565229C13.9003 0 12.9824 0 11.1467 0H4.85328ZM8 6.85714C6.32441 6.85714 4.93166 5.53627 4.68917 3.81977C4.64778 3.52682 4.89163 3.28571 5.1875 3.28571C5.48337 3.28571 5.71735 3.52825 5.77812 3.81781C6.00581 4.90263 6.91471 5.71429 8 5.71429C9.08529 5.71429 9.99419 4.90263 10.2219 3.81781C10.2826 3.52825 10.5166 3.28571 10.8125 3.28571C11.1084 3.28571 11.3522 3.52682 11.3108 3.81977C11.0683 5.53627 9.67558 6.85714 8 6.85714Z" fill="#80807E"/>
</svg>
