<svg width="14" height="14" viewBox="0 0 14 14" fill="none" xmlns="http://www.w3.org/2000/svg">
<path d="M0.554688 6.85938C0.554688 6.47656 0.875 6.15625 1.25 6.15625H6.30469V1.10938C6.30469 0.734375 6.61719 0.414062 7 0.414062C7.38281 0.414062 7.70312 0.734375 7.70312 1.10938V6.15625H12.75C13.125 6.15625 13.4453 6.47656 13.4453 6.85938C13.4453 7.24219 13.125 7.55469 12.75 7.55469H7.70312V12.6094C7.70312 12.9844 7.38281 13.3047 7 13.3047C6.61719 13.3047 6.30469 12.9844 6.30469 12.6094V7.55469H1.25C0.875 7.55469 0.554688 7.24219 0.554688 6.85938Z" fill="#FAFAFA"/>
</svg>
