<svg width="19" height="18" viewBox="0 0 19 18" fill="none" xmlns="http://www.w3.org/2000/svg">
<path fill-rule="evenodd" clip-rule="evenodd" d="M10.1686 2.01186C9.74588 1.72938 9.25412 1.72938 8.83139 2.01186L8.81609 2.02189L3.25491 5.57699C2.6404 5.96902 2.3 6.64554 2.3 7.32348V14.9185C2.3 15.6355 2.86633 16.2 3.57612 16.2H15.4239C16.1336 16.2 16.7 15.6355 16.7 14.9185V7.32348C16.7 6.62236 16.3291 5.99385 15.7275 5.56582L10.1839 2.02189L10.1686 2.01186ZM11.1605 0.509823C10.1366 -0.169947 8.86343 -0.169938 7.8395 0.509832L2.2861 4.05995C2.28598 4.06004 2.28623 4.05987 2.2861 4.05995C1.12771 4.79913 0.5 6.06233 0.5 7.32348V14.9185C0.5 16.6253 1.86799 18 3.57612 18H15.4239C17.132 18 18.5 16.6253 18.5 14.9185V7.32348C18.5 5.92947 17.7486 4.78496 16.7468 4.082C16.7363 4.07457 16.7255 4.06737 16.7146 4.06041L11.1605 0.509823Z" fill="#009C70"/>
</svg>
