<svg width="10" height="10" viewBox="0 0 10 10" fill="none" xmlns="http://www.w3.org/2000/svg">
<path d="M5.125 0C5.9809 0 6.58476 0.858629 6.33301 1.61621L5.72949 3.43457H8.85059C9.60573 3.43457 10.1593 4.19167 9.95801 4.94922L8.80078 8.88867C8.59943 9.54523 7.99434 10 7.33984 10H2.6582C2.00384 10 1.50023 9.4952 1.5 8.83887V4.19141C1.50014 3.73705 1.70195 3.2831 2.00391 2.92969L4.21875 0.404297C4.42015 0.151771 4.77255 2.02437e-06 5.125 0ZM0.5 3.5C0.79987 3.5 0.999827 3.7016 1 4.00391V8.99609C0.999934 9.29851 0.799951 9.5 0.5 9.5C0.200049 9.5 6.56864e-05 9.29851 0 8.99609V4.00391C0.000173225 3.7016 0.20013 3.5 0.5 3.5Z" fill="white"/>
</svg>
