<svg width="10" height="10" viewBox="0 0 10 10" fill="none" xmlns="http://www.w3.org/2000/svg">
<path d="M9.914 3.72386C9.77745 3.26973 9.3677 2.90643 8.91245 2.86101L7.0003 2.58854L6.1353 0.77202C5.9077 0.27248 5.49795 0 4.99715 0C4.49635 0 4.08665 0.27248 3.859 0.72661L2.994 2.54312L1.08189 2.86101C0.626625 2.95184 0.21689 3.26973 0.0803102 3.72386C-0.101795 4.2234 0.0347852 4.72295 0.398995 5.08625L1.81032 6.49405L1.49163 8.49225C1.40058 8.99175 1.62821 9.4913 2.03795 9.7638C2.26558 9.90005 2.49321 9.99085 2.76637 9.99085C2.994 9.99085 3.17611 9.94545 3.35821 9.8546L5.0882 8.90095L6.8182 9.8546C7.22795 10.0817 7.72875 10.0362 8.1385 9.7638C8.5482 9.4913 8.77585 8.99175 8.6848 8.49225L8.3661 6.49405L9.77745 5.08625C9.95955 4.72295 10.0961 4.178 9.914 3.72386Z" fill="white"/>
</svg>
