<svg width="8" height="11" viewBox="0 0 8 11" fill="none" xmlns="http://www.w3.org/2000/svg">
<path fill-rule="evenodd" clip-rule="evenodd" d="M5.48346 0.908879C5.48346 0.49664 5.24935 0.17037 4.92935 0.04949C4.61637 -0.0687228 4.23726 0.0213601 4.00983 0.35728L2.76722 1.9955L1.75614 3.29569L0.160506 5.40509C0.148064 5.42154 0.136619 5.43879 0.126234 5.45679C-0.0395101 5.74369 -0.0274444 6.08254 0.0782248 6.33864C0.186896 6.60204 0.438728 6.86959 0.8167 6.86959H2.4683V10.0769C2.4683 10.4996 2.71146 10.8167 3.03014 10.9409C3.3336 11.0591 3.68852 10.9998 3.95962 10.7651C3.98564 10.7426 4.00936 10.7171 4.0303 10.6892L6.24712 7.73589L7.20989 6.48589L7.21633 6.47729L7.84334 5.62559C7.8543 5.61074 7.86447 5.59519 7.87378 5.57909C8.03952 5.29214 8.02743 4.95329 7.92178 4.69719C7.81308 4.43382 7.56127 4.16625 7.1833 4.16625H5.48346V0.908879Z" fill="white"/>
</svg>
